<?xml version="1.0" encoding="utf-8"?>
<!-- Generator: Adobe Illustrator 16.0.0, SVG Export Plug-In . SVG Version: 6.00 Build 0)  -->
<!DOCTYPE svg PUBLIC "-//W3C//DTD SVG 1.1//EN" "http://www.w3.org/Graphics/SVG/1.1/DTD/svg11.dtd">
<svg version="1.1" id="Capa_1" xmlns="http://www.w3.org/2000/svg" xmlns:xlink="http://www.w3.org/1999/xlink" x="0px" y="0px"
	 width="255.057px" height="124.719px" viewBox="0 0 255.057 124.719" enable-background="new 0 0 255.057 124.719"
	 xml:space="preserve">
<g>
	<polygon fill="#303F9F" points="73.278,101.986 57.229,86.408 57.208,36.656 42.042,36.656 42.042,43.004 50.854,43.004 
		50.813,89.104 73.278,111.359 79.513,105.4 	"/>
	<polygon fill="#303F9F" points="73.278,101.986 57.229,86.408 57.208,36.656 34.587,36.66 34.563,86.408 18.517,101.986 
		12.29,105.404 18.517,111.359 40.983,89.105 40.944,43.007 50.854,43.004 50.813,89.104 73.278,111.359 79.513,105.4 	"/>
	<polygon fill="#303F9F" points="12.286,14.091 12.286,105.4 18.517,111.359 18.517,20.317 73.278,20.317 73.278,111.359 
		79.513,105.4 79.513,14.091 	"/>
</g>
<path fill="#303F9F" d="M94.117,39.572V17.131h3.371c1.503,0,2.698,0.116,3.591,0.349c0.9,0.232,1.662,0.625,2.281,1.177
	c0.631,0.572,1.13,1.284,1.497,2.136c0.378,0.863,0.565,1.735,0.565,2.616c0,1.609-0.614,2.97-1.846,4.084
	c1.191,0.407,2.132,1.119,2.818,2.137c0.698,1.008,1.047,2.18,1.047,3.517c0,1.754-0.62,3.236-1.859,4.448
	c-0.746,0.746-1.584,1.264-2.516,1.555c-1.019,0.281-2.291,0.421-3.821,0.421h-5.13L94.117,39.572L94.117,39.572z M97.504,26.767
	h1.062c1.26,0,2.183-0.278,2.77-0.835c0.586-0.557,0.879-1.378,0.879-2.464c0-1.056-0.3-1.858-0.9-2.405
	c-0.602-0.547-1.474-0.821-2.616-0.821h-1.19v6.525H97.504z M97.504,36.389h2.094c1.53,0,2.654-0.3,3.372-0.901
	c0.756-0.649,1.134-1.473,1.134-2.471c0-0.969-0.362-1.783-1.09-2.442c-0.708-0.649-1.973-0.974-3.794-0.974h-1.716V36.389
	L97.504,36.389z"/>
<path fill="#303F9F" d="M110.599,19.529c0-0.572,0.209-1.066,0.625-1.482c0.417-0.417,0.916-0.625,1.497-0.625
	c0.591,0,1.095,0.208,1.512,0.625c0.417,0.407,0.625,0.906,0.625,1.497s-0.208,1.095-0.625,1.511
	c-0.406,0.417-0.905,0.625-1.497,0.625c-0.591,0-1.095-0.208-1.512-0.625C110.808,20.639,110.599,20.13,110.599,19.529z
	 M114.363,25.416v14.156h-3.271V25.416H114.363z"/>
<path fill="#303F9F" d="M121.775,15.023v12.035c1.31-1.356,2.791-2.035,4.447-2.035c1.908,0,3.498,0.712,4.769,2.137
	c1.27,1.415,1.903,3.178,1.903,5.291c0,2.18-0.641,3.982-1.919,5.407c-1.271,1.415-2.873,2.122-4.812,2.122
	c-1.639,0-3.102-0.629-4.391-1.889v1.482h-3.271v-24.55H121.775z M129.551,32.595c0-1.354-0.367-2.461-1.104-3.312
	c-0.745-0.872-1.681-1.308-2.805-1.308c-1.201,0-2.182,0.421-2.937,1.264c-0.747,0.833-1.119,1.919-1.119,3.256
	c0,1.376,0.368,2.476,1.104,3.299c0.735,0.843,1.705,1.264,2.906,1.264c1.134,0,2.072-0.421,2.819-1.264
	C129.173,34.94,129.551,33.875,129.551,32.595z"/>
<path fill="#303F9F" d="M139.623,15.023v24.548h-3.271V15.023H139.623z"/>
<path fill="#303F9F" d="M143.271,19.529c0-0.572,0.209-1.066,0.625-1.482c0.417-0.417,0.916-0.625,1.497-0.625
	c0.591,0,1.095,0.208,1.512,0.625c0.417,0.407,0.625,0.906,0.625,1.497s-0.208,1.095-0.625,1.511
	c-0.406,0.417-0.905,0.625-1.496,0.625c-0.592,0-1.096-0.208-1.513-0.625C143.479,20.639,143.271,20.13,143.271,19.529z
	 M147.035,25.416v14.156h-3.271V25.416H147.035z"/>
<path fill="#303F9F" d="M150.509,32.392c0-2.044,0.731-3.784,2.194-5.218c1.463-1.434,3.246-2.151,5.349-2.151
	c2.112,0,3.904,0.722,5.379,2.166c1.452,1.444,2.18,3.217,2.18,5.32c0,2.122-0.73,3.9-2.193,5.334
	c-1.474,1.424-3.279,2.136-5.421,2.136c-2.122,0-3.899-0.727-5.335-2.18C151.226,36.365,150.509,34.562,150.509,32.392z
	 M153.852,32.45c0,1.415,0.378,2.534,1.134,3.357c0.773,0.833,1.798,1.25,3.065,1.25c1.279,0,2.302-0.412,3.066-1.235
	c0.766-0.823,1.147-1.923,1.147-3.299s-0.384-2.476-1.147-3.299c-0.775-0.833-1.798-1.25-3.066-1.25c-1.25,0-2.263,0.417-3.037,1.25
	C154.239,30.057,153.852,31.132,153.852,32.45z"/>
<path fill="#303F9F" d="M172.615,28.468v11.104h-3.271V28.468h-1.396v-3.052h1.396v-5.188h3.271v5.188h2.544v3.052H172.615z"/>
<path fill="#303F9F" d="M190.535,33.264H180.39c0.088,1.163,0.466,2.088,1.134,2.776c0.669,0.678,1.525,1.017,2.572,1.017
	c0.813,0,1.486-0.193,2.021-0.581c0.522-0.388,1.118-1.104,1.787-2.151l2.763,1.541c-0.427,0.727-0.878,1.349-1.354,1.868
	c-0.476,0.518-0.982,0.944-1.524,1.279c-0.543,0.334-1.129,0.579-1.76,0.734c-0.63,0.155-1.312,0.232-2.05,0.232
	c-2.111,0-3.809-0.678-5.087-2.035c-1.277-1.366-1.918-3.178-1.918-5.436c0-2.238,0.62-4.05,1.859-5.436
	c1.25-1.366,2.906-2.049,4.972-2.049c2.083,0,3.729,0.664,4.94,1.991c1.2,1.318,1.802,3.145,1.802,5.479L190.535,33.264z
	 M187.178,30.59c-0.456-1.744-1.557-2.616-3.301-2.616c-0.396,0-0.771,0.061-1.119,0.182c-0.348,0.121-0.666,0.295-0.951,0.523
	s-0.53,0.501-0.732,0.821c-0.204,0.32-0.358,0.683-0.466,1.09H187.178z"/>
<path fill="#303F9F" d="M205.127,26.026v4.346c-0.746-0.911-1.415-1.536-2.006-1.875c-0.581-0.349-1.266-0.523-2.051-0.523
	c-1.229,0-2.253,0.431-3.065,1.293s-1.221,1.943-1.221,3.241c0,1.328,0.394,2.417,1.177,3.27c0.795,0.853,1.809,1.279,3.038,1.279
	c0.785,0,1.479-0.169,2.078-0.508c0.582-0.33,1.265-0.969,2.05-1.918v4.316c-1.328,0.688-2.654,1.032-3.981,1.032
	c-2.189,0-4.021-0.707-5.494-2.122c-1.473-1.424-2.209-3.193-2.209-5.305c0-2.112,0.746-3.895,2.238-5.349
	c1.491-1.453,3.322-2.18,5.493-2.18C202.568,25.023,203.887,25.357,205.127,26.026z"/>
<path fill="#303F9F" d="M218.73,25.416h3.285v14.156h-3.285V38.09c-1.348,1.26-2.795,1.889-4.347,1.889
	c-1.957,0-3.574-0.707-4.854-2.122c-1.269-1.444-1.902-3.246-1.902-5.407c0-2.122,0.636-3.89,1.902-5.305
	c1.271-1.415,2.858-2.122,4.769-2.122c1.646,0,3.125,0.679,4.434,2.035L218.73,25.416L218.73,25.416z M210.97,32.45
	c0,1.356,0.362,2.461,1.09,3.313c0.746,0.863,1.688,1.293,2.818,1.293c1.212,0,2.189-0.416,2.938-1.25
	c0.746-0.862,1.119-1.958,1.119-3.285c0-1.328-0.373-2.422-1.119-3.285c-0.746-0.843-1.715-1.264-2.906-1.264
	c-1.124,0-2.062,0.426-2.819,1.279C211.343,30.115,210.97,31.181,210.97,32.45z"/>
<g>
	<path fill="#303F9F" d="M94.117,70.548V46.581l16.365,17.121V48.107h3.387v23.807L97.504,54.836v15.711L94.117,70.548
		L94.117,70.548z"/>
	<path fill="#303F9F" d="M129.349,56.392h3.284v14.156h-3.284v-1.481c-1.348,1.261-2.795,1.891-4.347,1.891
		c-1.957,0-3.574-0.707-4.854-2.122c-1.27-1.442-1.902-3.246-1.902-5.407c0-2.122,0.635-3.89,1.902-5.305
		c1.271-1.414,2.857-2.122,4.769-2.122c1.646,0,3.125,0.679,4.434,2.035L129.349,56.392L129.349,56.392z M121.588,63.426
		c0,1.357,0.363,2.463,1.091,3.314c0.745,0.861,1.688,1.293,2.818,1.293c1.212,0,2.189-0.416,2.938-1.25
		c0.746-0.862,1.119-1.957,1.119-3.284s-0.373-2.423-1.119-3.285c-0.746-0.843-1.716-1.265-2.907-1.265
		c-1.124,0-2.062,0.427-2.818,1.279C121.961,61.091,121.588,62.157,121.588,63.426z"/>
	<path fill="#303F9F" d="M147.778,57.002v4.346c-0.745-0.91-1.415-1.535-2.006-1.875c-0.581-0.349-1.266-0.523-2.05-0.523
		c-1.229,0-2.254,0.432-3.065,1.294c-0.813,0.862-1.222,1.942-1.222,3.24c0,1.328,0.394,2.418,1.177,3.271
		c0.796,0.854,1.809,1.278,3.038,1.278c0.785,0,1.479-0.169,2.078-0.51c0.582-0.33,1.266-0.969,2.05-1.918v4.315
		c-1.327,0.688-2.654,1.032-3.981,1.032c-2.189,0-4.021-0.707-5.493-2.122c-1.474-1.425-2.21-3.192-2.21-5.306
		c0-2.112,0.746-3.896,2.238-5.349c1.492-1.454,3.322-2.181,5.494-2.181C145.22,55.999,146.538,56.333,147.778,57.002z"/>
	<path fill="#303F9F" d="M150.452,50.505c0-0.572,0.209-1.066,0.625-1.482c0.417-0.417,0.916-0.625,1.497-0.625
		c0.591,0,1.095,0.208,1.512,0.625c0.417,0.407,0.625,0.906,0.625,1.497s-0.208,1.095-0.625,1.511
		c-0.406,0.417-0.905,0.625-1.497,0.625c-0.591,0-1.095-0.208-1.512-0.625C150.661,51.615,150.452,51.106,150.452,50.505z
		 M154.217,56.392v14.156h-3.271V56.392H154.217z"/>
	<path fill="#303F9F" d="M157.69,63.368c0-2.045,0.73-3.784,2.193-5.218c1.464-1.434,3.246-2.151,5.35-2.151
		c2.112,0,3.904,0.722,5.378,2.166c1.453,1.443,2.181,3.217,2.181,5.319c0,2.121-0.73,3.898-2.193,5.334
		c-1.474,1.424-3.28,2.137-5.422,2.137c-2.121,0-3.899-0.727-5.335-2.182C158.407,67.341,157.69,65.538,157.69,63.368z
		 M161.033,63.426c0,1.415,0.378,2.534,1.134,3.357c0.773,0.834,1.797,1.25,3.065,1.25c1.279,0,2.302-0.411,3.065-1.235
		c0.767-0.823,1.147-1.923,1.147-3.299s-0.383-2.476-1.147-3.3c-0.774-0.833-1.797-1.25-3.065-1.25c-1.25,0-2.263,0.417-3.038,1.25
		C161.421,61.033,161.033,62.108,161.033,63.426z"/>
	<path fill="#303F9F" d="M176.25,56.392h3.285V57.7c1.145-1.133,2.432-1.7,3.865-1.7c1.646,0,2.932,0.519,3.853,1.556
		c0.794,0.882,1.19,2.32,1.19,4.316v8.677h-3.283v-7.896c0-1.394-0.194-2.356-0.582-2.889c-0.378-0.542-1.064-0.813-2.062-0.813
		c-1.085,0-1.854,0.358-2.312,1.074c-0.446,0.707-0.669,1.94-0.669,3.702v6.822h-3.285V56.392L176.25,56.392z"/>
	<path fill="#303F9F" d="M203.008,56.392h3.285v14.156h-3.285v-1.481c-1.347,1.261-2.795,1.891-4.346,1.891
		c-1.957,0-3.575-0.707-4.854-2.122c-1.27-1.442-1.903-3.246-1.903-5.407c0-2.122,0.636-3.89,1.903-5.305
		c1.271-1.414,2.857-2.122,4.769-2.122c1.646,0,3.125,0.679,4.433,2.035L203.008,56.392L203.008,56.392z M195.247,63.426
		c0,1.357,0.362,2.463,1.09,3.314c0.746,0.861,1.688,1.293,2.818,1.293c1.213,0,2.19-0.416,2.938-1.25
		c0.746-0.862,1.119-1.957,1.119-3.284s-0.373-2.423-1.119-3.285c-0.745-0.843-1.715-1.265-2.906-1.265
		c-1.124,0-2.062,0.427-2.818,1.279C195.62,61.091,195.247,62.157,195.247,63.426z"/>
	<path fill="#303F9F" d="M213.69,46v24.548h-3.271V46H213.69z"/>
</g>
<g>
	<path fill="#303F9F" d="M228.887,45.396h2.091v15.622h-2.091v-0.943c-0.82,0.802-1.748,1.202-2.784,1.202
		c-1.231,0-2.257-0.45-3.069-1.351c-0.809-0.918-1.213-2.065-1.213-3.44c0-1.344,0.404-2.466,1.213-3.367
		c0.802-0.906,1.81-1.359,3.023-1.359c1.055,0,1.998,0.432,2.83,1.294V45.396z M223.948,56.485c0,0.863,0.229,1.566,0.692,2.109
		c0.476,0.549,1.072,0.822,1.794,0.822c0.771,0,1.395-0.265,1.869-0.795c0.475-0.549,0.712-1.245,0.712-2.091
		c0-0.845-0.237-1.541-0.712-2.09c-0.477-0.537-1.093-0.805-1.852-0.805c-0.716,0-1.312,0.271-1.794,0.814
		C224.186,55,223.948,55.678,223.948,56.485z"/>
	<path fill="#303F9F" d="M241.809,57.003h-6.456c0.057,0.74,0.296,1.329,0.723,1.767c0.425,0.433,0.971,0.647,1.637,0.647
		c0.52,0,0.946-0.123,1.286-0.369c0.333-0.247,0.712-0.703,1.139-1.369l1.757,0.98c-0.271,0.462-0.559,0.858-0.859,1.188
		c-0.303,0.33-0.626,0.602-0.972,0.813c-0.347,0.213-0.72,0.369-1.119,0.468c-0.4,0.099-0.836,0.147-1.305,0.147
		c-1.345,0-2.424-0.432-3.237-1.295c-0.812-0.869-1.221-2.022-1.221-3.459c0-1.424,0.396-2.578,1.186-3.459
		c0.795-0.869,1.85-1.304,3.162-1.304c1.325,0,2.374,0.422,3.146,1.267c0.766,0.838,1.146,2.001,1.146,3.486L241.809,57.003z
		 M239.672,55.302c-0.29-1.11-0.988-1.665-2.101-1.665c-0.253,0-0.489,0.039-0.712,0.116s-0.424,0.188-0.605,0.333
		c-0.183,0.145-0.337,0.319-0.467,0.522c-0.129,0.204-0.229,0.435-0.296,0.694H239.672z"/>
</g>
<g>
	<path fill="#303F9F" d="M110.701,80.284v4.005c-1.957-1.639-3.982-2.456-6.075-2.456c-2.308,0-4.249,0.828-5.828,2.485
		c-1.59,1.646-2.384,3.662-2.384,6.046c0,2.354,0.794,4.341,2.384,5.959s3.536,2.427,5.844,2.427c1.19,0,2.204-0.193,3.037-0.581
		c0.465-0.192,0.946-0.455,1.445-0.785c0.499-0.329,1.023-0.727,1.577-1.19v4.092c-1.938,1.101-3.974,1.648-6.104,1.648
		c-3.207,0-5.944-1.119-8.213-3.355c-2.258-2.26-3.387-4.979-3.387-8.168c0-2.858,0.944-5.407,2.835-7.646
		c2.325-2.742,5.334-4.113,9.024-4.113C106.873,78.648,108.821,79.193,110.701,80.284z"/>
	<path fill="#303F9F" d="M113.681,94.348c0-2.046,0.73-3.785,2.193-5.219s3.246-2.15,5.35-2.15c2.111,0,3.903,0.723,5.378,2.166
		c1.453,1.442,2.181,3.217,2.181,5.318c0,2.122-0.731,3.9-2.194,5.334c-1.473,1.424-3.279,2.137-5.421,2.137
		c-2.122,0-3.899-0.727-5.335-2.181C114.397,98.318,113.681,96.518,113.681,94.348z M117.023,94.404
		c0,1.414,0.378,2.533,1.135,3.355c0.773,0.834,1.797,1.25,3.065,1.25c1.278,0,2.301-0.41,3.065-1.234
		c0.767-0.822,1.147-1.922,1.147-3.299c0-1.375-0.383-2.477-1.147-3.301c-0.774-0.833-1.797-1.25-3.065-1.25
		c-1.25,0-2.264,0.417-3.038,1.25C117.411,92.012,117.023,93.087,117.023,94.404z"/>
	<path fill="#303F9F" d="M135.511,76.979v24.549h-3.271V76.979H135.511z"/>
	<path fill="#303F9F" d="M138.984,94.348c0-2.046,0.73-3.785,2.194-5.219c1.463-1.434,3.245-2.15,5.349-2.15
		c2.112,0,3.904,0.723,5.378,2.166c1.453,1.442,2.181,3.217,2.181,5.318c0,2.122-0.73,3.9-2.193,5.334
		c-1.474,1.424-3.28,2.137-5.421,2.137c-2.122,0-3.9-0.727-5.336-2.181C139.701,98.318,138.984,96.518,138.984,94.348z
		 M142.327,94.404c0,1.414,0.378,2.533,1.134,3.355c0.773,0.834,1.797,1.25,3.065,1.25c1.279,0,2.302-0.41,3.065-1.234
		c0.767-0.822,1.148-1.922,1.148-3.299c0-1.375-0.384-2.477-1.148-3.301c-0.774-0.833-1.797-1.25-3.065-1.25
		c-1.25,0-2.263,0.417-3.038,1.25C142.715,92.012,142.327,93.087,142.327,94.404z"/>
	<path fill="#303F9F" d="M157.544,87.37h3.271v1.308c0.63-0.658,1.168-1.104,1.613-1.337c0.475-0.241,1.069-0.362,1.787-0.362
		c1.6,0,2.863,0.697,3.793,2.092c1.027-1.395,2.418-2.092,4.173-2.092c3.188,0,4.78,1.935,4.78,5.799v8.75h-3.285v-7.862
		c0-1.354-0.163-2.313-0.493-2.878c-0.34-0.571-0.896-0.855-1.671-0.855c-0.901,0-1.559,0.34-1.971,1.018
		c-0.412,0.679-0.617,1.769-0.617,3.271v7.312h-3.284V93.71c0-2.521-0.728-3.778-2.181-3.778c-0.921,0-1.592,0.344-2.015,1.031
		c-0.421,0.688-0.632,1.773-0.632,3.256v7.311h-3.271L157.544,87.37L157.544,87.37z"/>
	<path fill="#303F9F" d="M184.359,76.979v12.035c1.31-1.355,2.791-2.035,4.447-2.035c1.908,0,3.498,0.711,4.769,2.138
		c1.271,1.415,1.903,3.178,1.903,5.29c0,2.181-0.641,3.98-1.919,5.406c-1.271,1.414-2.873,2.121-4.812,2.121
		c-1.639,0-3.102-0.629-4.391-1.89v1.481h-3.271V76.979H184.359z M192.135,94.55c0-1.356-0.367-2.461-1.104-3.313
		c-0.745-0.87-1.681-1.309-2.805-1.309c-1.201,0-2.182,0.422-2.937,1.266c-0.747,0.834-1.119,1.918-1.119,3.257
		c0,1.376,0.368,2.476,1.104,3.299c0.735,0.844,1.705,1.267,2.906,1.267c1.134,0,2.072-0.423,2.819-1.267
		C191.757,96.895,192.135,95.829,192.135,94.55z"/>
	<path fill="#303F9F" d="M198.442,81.482c0-0.57,0.209-1.064,0.625-1.481c0.417-0.416,0.916-0.625,1.497-0.625
		c0.591,0,1.096,0.209,1.513,0.625c0.417,0.407,0.625,0.906,0.625,1.497c0,0.592-0.208,1.096-0.625,1.512
		c-0.407,0.417-0.906,0.625-1.497,0.625c-0.592,0-1.096-0.208-1.513-0.625C198.651,82.594,198.442,82.085,198.442,81.482z
		 M202.207,87.37v14.155h-3.271V87.37H202.207z"/>
	<path fill="#303F9F" d="M216.784,87.37h3.284v14.155h-3.284v-1.481c-1.348,1.261-2.796,1.89-4.347,1.89
		c-1.957,0-3.575-0.707-4.854-2.121c-1.27-1.442-1.902-3.246-1.902-5.406c0-2.122,0.635-3.891,1.902-5.307
		c1.271-1.414,2.857-2.121,4.769-2.121c1.646,0,3.125,0.68,4.434,2.035L216.784,87.37L216.784,87.37z M209.023,94.404
		c0,1.355,0.363,2.462,1.09,3.312c0.746,0.862,1.688,1.293,2.819,1.293c1.212,0,2.189-0.416,2.938-1.25
		c0.746-0.861,1.118-1.955,1.118-3.283c0-1.326-0.372-2.422-1.118-3.285c-0.746-0.842-1.716-1.266-2.907-1.266
		c-1.124,0-2.062,0.428-2.818,1.279C209.396,92.068,209.023,93.136,209.023,94.404z"/>
</g>
</svg>
