<svg width="200" height="45" xmlns="http://www.w3.org/2000/svg" viewBox="0 0 844.39 182.1">
  <g fill-rule="evenodd">
    <!-- Green dot -->
    <path id="p1" style="fill:#56ffa9;" d="M762,40.61C762,18.2,780.43,0,803.18,0s41.21,18.2,41.21,40.61-18.46,40.62-41.21,40.62S762,63,762,40.61Z"></path>
    <!-- Yellow dot -->
    <path id="p2" style="fill:#ffed6a;" d="M762,141.49c0-22.42,18.47-40.61,41.22-40.61s41.21,18.19,41.21,40.61-18.46,40.61-41.21,40.61S762,163.9,762,141.49Z"></path>
    <!-- CIV -->
    <path style="fill:#2e5087;" d="M150.23,28.82a88,88,0,1,0,0,124.46l-31.12-31.11a44,44,0,1,1,0-62.24Z"></path>
    <rect style="fill:#2e5087;" x="177.94" y="5.38" width="44.33" height="171.35"></rect>
    <polygon style="fill:#2e5087;" points="379.85 5.38 334.12 117.71 288.39 5.38 238.94 5.38 308.69 176.73 359.55 176.73 429.3 5.38 379.85 5.38"></polygon>
    <!-- 10 -->
    <path class="ten" style="fill:#526ecd;" d="M473,5.38c-5.2,11-13.91,18.49-23.9,19.36V56.4H473V176.73h44.33V5.38Z"></path>
    <path class="ten" style="fill:#526ecd;" d="M695.09,28.82a88,88,0,1,0,0,124.46A88,88,0,0,0,695.09,28.82ZM664,122.17a44,44,0,1,1,0-62.24A44,44,0,0,1,664,122.17Z"></path>
  </g>
</svg>