<svg xmlns="http://www.w3.org/2000/svg" xmlns:xlink="http://www.w3.org/1999/xlink" overflow="visible" xml:space="preserve" viewBox="0 0 129.654 117.372">
  <switch>
    <g>
      <g opacity=".4">
        <defs>
          <path id="a" d="M17.072 3.87h104.336v104.336H17.072z"/>
        </defs>
        <clipPath id="b">
          <use xlink:href="#a"/>
        </clipPath>
        <path clip-path="url(#b)" fill="#115CA4" d="M118.434 6.515 29.072 38.022l-9.023 69.854 87.114-20.688z"/>
      </g>
      <g opacity=".4">
        <defs>
          <path id="c" d="M26.12 35.541h103.534v69.06H26.12z"/>
        </defs>
        <clipPath id="d">
          <use xlink:href="#c"/>
        </clipPath>
        <path clip-path="url(#d)" fill="#115CA4" d="m29.097 38.186 97.578 15.251-18.337 43.888-58.304 6.942z"/>
      </g>
      <g opacity=".6">
        <defs>
          <path id="e" transform="rotate(82.998 57.56 58.689)" d="M4.758 7.18h105.601v103.012H4.758z"/>
        </defs>
        <clipPath id="f">
          <use xlink:href="#e"/>
        </clipPath>
        <path transform="rotate(82.998 58.685 58.408)" clip-path="url(#f)" fill="#115CA4" d="M14.116 13.838h89.133v89.136H14.116z"/>
      </g>
      <g opacity=".4">
        <defs>
          <path id="g" d="M17.072 56.086h104.336v52.12H17.072z"/>
        </defs>
        <clipPath id="h">
          <use xlink:href="#g"/>
        </clipPath>
        <path clip-path="url(#h)" fill="#115CA4" d="m118.434 58.731-98.385 49.145 88.289-10.551z"/>
      </g>
      <path fill="#F8DD2C" d="m32.066 51.9 2.07-6.4 2.26 6.45 6.775.055-5.629 3.847 2.243 6.493-5.553-3.858-5.459 3.858 1.882-6.305-5.363-4.046zm14.206-9.447 1.527-4.722 1.667 4.76 5 .04-4.157 2.839 1.655 4.789-4.096-2.846-4.026 2.846 1.387-4.651-3.958-2.985zm13.754-.145.852-2.634.929 2.656 2.792.021-2.32 1.584.923 2.672-2.286-1.586-2.248 1.586.776-2.594-2.206-1.667z"/>
      <path d="M88.119 92.413V82.21h2.718c2.973 0 5.128 2.121 5.128 5.094 0 2.99-2.155 5.109-5.128 5.109h-2.718zm-1.377.906c0 .18.145.344.325.344h4.061c3.497 0 6.36-2.844 6.36-6.359 0-3.48-2.863-6.324-6.36-6.324h-4.061c-.181 0-.325.164-.325.344v11.995zm-14.768.276a.343.343 0 0 0 .326.248h.289a.37.37 0 0 0 .309-.195l3.081-9.807h.09l3.135 9.807a.367.367 0 0 0 .306.195h.29a.347.347 0 0 0 .328-.248l3.422-12.18c.075-.256-.07-.436-.325-.436h-.761a.368.368 0 0 0-.325.254l-2.465 9.387H79.6l-3.078-9.623c-.036-.111-.162-.199-.309-.199h-.326c-.163 0-.271.088-.308.199l-3.027 9.623h-.073l-2.517-9.387a.373.373 0 0 0-.329-.254h-.759c-.254 0-.398.18-.327.436l3.427 12.18zm-17.431-6.256c0-2.879 2.354-5.271 5.235-5.271 2.881 0 5.256 2.393 5.256 5.271s-2.375 5.236-5.256 5.236c-2.881 0-5.235-2.357-5.235-5.236m-1.269 0a6.463 6.463 0 0 0 6.505 6.504c3.624 0 6.523-2.879 6.523-6.504a6.512 6.512 0 0 0-6.523-6.541c-3.625 0-6.505 2.918-6.505 6.541m-10.348.164v-5.201h3.517c1.396 0 2.607 1.178 2.607 2.555 0 1.486-1.212 2.646-2.607 2.646h-3.517zm-1.431 5.816c0 .18.146.344.344.344h.708a.356.356 0 0 0 .343-.344v-4.621h3.462l2.407 4.801a.317.317 0 0 0 .291.164h.926c.309 0 .436-.289.309-.523L47.8 88.536c1.578-.639 2.682-2.033 2.682-3.697 0-2.16-1.775-3.863-3.949-3.863h-4.694a.346.346 0 0 0-.344.348v11.995zm-14.459-5.98c0 3.625 2.917 6.504 6.541 6.504 1.613 0 3.171-.559 4.404-1.756.127-.127.162-.381.017-.488l-.542-.49c-.109-.074-.255-.088-.434.053-.959.727-1.885 1.361-3.461 1.361-2.863 0-5.057-2.41-5.057-5.201 0-2.809 2.194-5.219 5.057-5.219 1.232 0 2.519.545 3.461 1.359.179.184.325.199.471.02l.488-.488c.146-.146.127-.365-.018-.51-1.232-1.049-2.555-1.686-4.386-1.686a6.526 6.526 0 0 0-6.541 6.541M79.31 71.665c0-2.881 2.356-5.271 5.238-5.271s5.257 2.391 5.257 5.271c0 2.885-2.375 5.24-5.257 5.24-2.881-.002-5.238-2.355-5.238-5.24m-1.267 0c0 3.625 2.881 6.508 6.505 6.508s6.523-2.883 6.523-6.508c0-3.621-2.899-6.539-6.523-6.539s-6.505 2.918-6.505 6.539m-10.345.166v-5.199h3.515c1.394 0 2.608 1.176 2.608 2.555 0 1.482-1.215 2.645-2.608 2.645h-3.515v-.001zm-1.433 5.815c0 .184.145.348.344.348h.706a.358.358 0 0 0 .346-.348v-4.619h3.462l2.408 4.803c.037.072.127.16.29.16h.925c.31 0 .434-.285.31-.525l-2.484-4.6c1.578-.637 2.683-2.029 2.683-3.697 0-2.156-1.776-3.859-3.95-3.859h-4.694a.342.342 0 0 0-.344.342v11.995h-.002zm-13.862-4.331c0 2.754 1.938 4.857 4.783 4.857 2.865 0 4.823-2.104 4.823-4.857v-7.662a.355.355 0 0 0-.346-.346h-.688c-.2 0-.345.16-.345.346v7.592c0 2.066-1.306 3.643-3.445 3.643-2.119 0-3.406-1.615-3.406-3.678v-7.557a.342.342 0 0 0-.343-.346h-.689a.355.355 0 0 0-.345.346v7.662h.001zm-11.287 4.331c0 .184.143.348.343.348h7.14c.2 0 .342-.164.342-.348v-.521a.343.343 0 0 0-.342-.346H42.51v-4.621h5.2a.344.344 0 0 0 .344-.346v-.527a.357.357 0 0 0-.344-.342h-5.2v-4.42h6.088a.343.343 0 0 0 .342-.344v-.529a.341.341 0 0 0-.342-.342h-7.14a.341.341 0 0 0-.345.342v11.996h.003z" fill="#FFF"/>
      <script/>
    </g>
  </switch>
</svg>
