<svg id="bb0ad2cd-4303-4ab5-922e-a29468794223" data-name="Capa 1" xmlns="http://www.w3.org/2000/svg" viewBox="0 0 381.92 134.32"><defs><style>.a4a0788c-0053-4714-a659-129956d787f3{fill:none;}.a14f6546-badb-4b7d-8d59-4a3c603d46cc{fill:#a1c639;}.a476f25c-fd04-449d-b579-7fd7808bd59b{fill:#3f3f3f;}.b2d6e342-7cb7-4fd9-86ba-79e03da0fd14{fill:#ffd500;}.a71c4674-c392-4933-9bb2-f024fb19ded1{fill:#1d7477;}.bb452c4f-6dee-4a6d-9417-4dc0ff20756f{fill:#fff;}</style></defs><title>Logo CoActuem_svg_cas</title><polygon class="a4a0788c-0053-4714-a659-129956d787f3" points="120.43 14.74 114.62 30.47 126.27 30.47 120.43 14.74"/><path class="a4a0788c-0053-4714-a659-129956d787f3" d="M107.56,176.85a7,7,0,0,0-.83-3.8c-.83-1.11-3.49-1.72-4.44-1.86l-.39-.05,0-2,.3-.1a3.68,3.68,0,1,0-2.37,0l.44.09v2l-.38.05c-1,.14-3.62.75-4.45,1.86s-.75,3-.7,3.8Z" transform="translate(-25.55 -145.75)"/><path class="a14f6546-badb-4b7d-8d59-4a3c603d46cc" d="M25.55,203.38v38.27c0,11,6.73,19.94,15,19.94H355.76l.17,18.48,29.28-18.48h7.23c8.3,0,15-8.93,15-19.94V203.38Z" transform="translate(-25.55 -145.75)"/><path class="a476f25c-fd04-449d-b579-7fd7808bd59b" d="M49.54,194.42A24,24,0,0,0,72.37,177.9H60.92a12.74,12.74,0,0,1-11.38,6.92C42,184.82,36,178.38,36,170.43S42,156,49.54,156c4.73,0,9.39,2.61,11.31,6.79H72.3a24,24,0,1,0-22.76,31.6Z" transform="translate(-25.55 -145.75)"/><path class="a476f25c-fd04-449d-b579-7fd7808bd59b" d="M133.39,194.62l3.6-9.71h18.08l3.6,9.71h11.38l-19.54-48.17h-9L122,194.62ZM146,160.49l5.84,15.73H140.17Z" transform="translate(-25.55 -145.75)"/><path class="a476f25c-fd04-449d-b579-7fd7808bd59b" d="M179.89,193.33a21.12,21.12,0,0,0,9.36,2,19.2,19.2,0,0,0,8.26-1.78,16,16,0,0,0,6.07-4.83,12.08,12.08,0,0,0,2.54-6.61H195.54a5.28,5.28,0,0,1-1.85,3.65,6.77,6.77,0,0,1-4.44,1.3q-3.92,0-5.61-2.26a10.52,10.52,0,0,1,0-11.47q1.71-2.35,5.59-2.35a6.77,6.77,0,0,1,4.44,1.3,5.28,5.28,0,0,1,1.85,3.64h10.58a12.06,12.06,0,0,0-2.54-6.62,16.15,16.15,0,0,0-6.07-4.82,18.92,18.92,0,0,0-8.26-1.8,20.33,20.33,0,0,0-9.84,2.18,14.54,14.54,0,0,0-6.06,5.89,17.15,17.15,0,0,0-2,8.29,16.26,16.26,0,0,0,2.25,8.61A14.83,14.83,0,0,0,179.89,193.33Z" transform="translate(-25.55 -145.75)"/><polygon class="a476f25c-fd04-449d-b579-7fd7808bd59b" points="188.18 48.87 198.73 48.87 198.73 25.84 204.4 25.84 204.4 17.64 198.73 17.64 198.73 5.75 188.18 5.75 188.18 17.64 182.51 17.64 182.51 25.84 188.18 25.84 188.18 48.87"/><path class="b2d6e342-7cb7-4fd9-86ba-79e03da0fd14" d="M94,177.75h14.46l0-.42c0-.13.22-3.2-1-4.82-1-1.34-3.66-1.95-4.66-2.14v-.58a4.58,4.58,0,1,0-3.4.1v.48c-1,.19-3.65.8-4.65,2.14-1.23,1.63-.86,4.71-.84,4.84Zm1.51-4.7c.83-1.11,3.49-1.72,4.45-1.86l.38-.05v-2l-.44-.09a3.69,3.69,0,1,1,2.37,0l-.3.1,0,2,.39.05c.95.14,3.61.75,4.44,1.86a7,7,0,0,1,.83,3.8H94.77C94.72,176,94.69,174.09,95.47,173.05Z" transform="translate(-25.55 -145.75)"/><path class="a71c4674-c392-4933-9bb2-f024fb19ded1" d="M83.13,170.52a.69.69,0,0,0,.63.68,3.18,3.18,0,0,0,.06-.62,3.47,3.47,0,0,0-.09-.73A.68.68,0,0,0,83.13,170.52Z" transform="translate(-25.55 -145.75)"/><path class="b2d6e342-7cb7-4fd9-86ba-79e03da0fd14" d="M91.94,171.22a.7.7,0,1,0,0-1.39H83.82l-.09,0a3.15,3.15,0,1,0,0,1.35l.06,0Z" transform="translate(-25.55 -145.75)"/><path class="b2d6e342-7cb7-4fd9-86ba-79e03da0fd14" d="M92.75,177.89l-3.88,3.78a3.28,3.28,0,0,0-1-.52,3.16,3.16,0,1,0,2.08,4,3.12,3.12,0,0,0-.2-2.37l4-3.85a.71.71,0,0,0,0-1A.69.69,0,0,0,92.75,177.89Z" transform="translate(-25.55 -145.75)"/><path class="b2d6e342-7cb7-4fd9-86ba-79e03da0fd14" d="M109.68,162.5a.71.71,0,0,0,.49-.2l4.2-4.1a3.37,3.37,0,0,0,2,.69,3.58,3.58,0,0,0,.87-.11,3.36,3.36,0,0,0,2.07-1.58,3.39,3.39,0,0,0-2.93-5.1,3.2,3.2,0,0,0-.87.12,3.4,3.4,0,0,0-2.41,4.15,3.55,3.55,0,0,0,.32.78l-4.26,4.15a.7.7,0,0,0,0,1A.67.67,0,0,0,109.68,162.5Z" transform="translate(-25.55 -145.75)"/><path class="b2d6e342-7cb7-4fd9-86ba-79e03da0fd14" d="M114.47,181.43a3.09,3.09,0,0,0-1.21.49L109.21,178a.69.69,0,1,0-1,1l4.06,3.93a3.16,3.16,0,1,0,5.81,1.11A3.17,3.17,0,0,0,114.47,181.43Z" transform="translate(-25.55 -145.75)"/><path class="b2d6e342-7cb7-4fd9-86ba-79e03da0fd14" d="M100.87,145.75a3.16,3.16,0,0,0-.7,6.24v6.81a.7.7,0,1,0,1.39,0V152a3.16,3.16,0,0,0-.69-6.24Z" transform="translate(-25.55 -145.75)"/><path class="b2d6e342-7cb7-4fd9-86ba-79e03da0fd14" d="M101.56,186.76V180a.7.7,0,1,0-1.39,0v6.72a3.17,3.17,0,1,0,1.39,0Z" transform="translate(-25.55 -145.75)"/><path class="b2d6e342-7cb7-4fd9-86ba-79e03da0fd14" d="M85.1,158.68a3.14,3.14,0,0,0,2.48-.39l4.15,4a.7.7,0,1,0,1-1l-4.14-4a3,3,0,0,0,.39-.88,3.16,3.16,0,1,0-3.85,2.26Z" transform="translate(-25.55 -145.75)"/><path class="b2d6e342-7cb7-4fd9-86ba-79e03da0fd14" d="M121.5,167.42a3.15,3.15,0,0,0-3.06,2.41h-7.85a.7.7,0,0,0,0,1.39h7.81a3.16,3.16,0,1,0,3.1-3.8Z" transform="translate(-25.55 -145.75)"/><path class="a476f25c-fd04-449d-b579-7fd7808bd59b" d="M237.08,184.24V163.32h4.45v20.22c0,4.89,2.25,7,6,7,6.32,0,8.94-5.82,8.94-12V163.32H261v31.2h-4.46v-5.4c-2,3.77-5.11,6.09-9.5,6.09C240.6,195.21,237.08,190.85,237.08,184.24Z" transform="translate(-25.55 -145.75)"/><path class="a476f25c-fd04-449d-b579-7fd7808bd59b" d="M267.29,178.9c0-9.35,5.74-16.31,13.65-16.31,4.33,0,7.92,2.15,10.6,6v-5.3H296v31.2h-4.46v-5.33c-2.68,3.91-6.33,6-10.6,6C273.09,195.21,267.29,188.36,267.29,178.9Zm24.25,0c0-6.92-4.15-11.6-9.88-11.6s-9.91,4.54-9.91,11.6,4.14,11.64,9.91,11.64C287.27,190.54,291.54,186,291.54,178.9Z" transform="translate(-25.55 -145.75)"/><path class="a476f25c-fd04-449d-b579-7fd7808bd59b" d="M304.71,194.38v-31.2h4.46v4.95a8.72,8.72,0,0,1,8.6-5.54,8.59,8.59,0,0,1,8.57,5.82,9.7,9.7,0,0,1,9.26-5.82c5.92,0,9.19,4.4,9.19,11.57v20.22H340.3V175.09c0-4.67-1.65-7.51-5.67-7.51-3.4,0-7.14,2-7.14,8.73v18.07H323V174.89c0-4.47-1.66-7.31-5.68-7.31-4.73,0-8.16,3.53-8.16,10.84v16Z" transform="translate(-25.55 -145.75)"/><path class="a476f25c-fd04-449d-b579-7fd7808bd59b" d="M350.3,178.9c0-9.69,6.48-16.31,14.67-16.31s14.68,6.55,14.68,16.31c0,10.08-6.76,16.31-14.68,16.31S350.3,188.84,350.3,178.9Zm24.87,0c0-7.2-4.52-11.6-10.2-11.6s-10.22,4.3-10.22,11.6,4.52,11.64,10.22,11.64S375.17,186.21,375.17,178.9Z" transform="translate(-25.55 -145.75)"/><path class="a476f25c-fd04-449d-b579-7fd7808bd59b" d="M383.54,184.37H388c.07,4.82,3.15,6.62,7.17,6.62,4.33,0,6.24-2.08,6.24-4.71,0-7.72-17-2.81-17-14.51,0-6,4.46-9.18,10.13-9.18s9.91,3.22,10.22,9.18H400.3c-.24-3.29-2.8-4.92-5.73-4.92-3.71,0-5.67,2.08-5.67,4.47,0,7,17,2.35,17,14.47,0,6.55-4.92,9.42-11.06,9.42C388.18,195.21,383.85,192.24,383.54,184.37Z" transform="translate(-25.55 -145.75)"/><path class="bb452c4f-6dee-4a6d-9417-4dc0ff20756f" d="M57.53,253.53v-29h2.93v3.14a8.57,8.57,0,0,1,7-3.57c5.21,0,9,4.13,9,9.67s-3.82,9.67-9,9.67a8.55,8.55,0,0,1-7-3.58v13.67Zm16-19.76c0-4.19-2.81-6.88-6.52-6.88s-6.51,2.78-6.51,6.88,2.81,6.9,6.51,6.9S73.49,237.89,73.49,233.77Z" transform="translate(-25.55 -145.75)"/><path class="bb452c4f-6dee-4a6d-9417-4dc0ff20756f" d="M78.66,233.77a9.67,9.67,0,1,1,9.67,9.67A9.38,9.38,0,0,1,78.66,233.77Zm16.38,0a6.73,6.73,0,1,0-6.71,6.9A6.5,6.5,0,0,0,95,233.77Z" transform="translate(-25.55 -145.75)"/><path class="bb452c4f-6dee-4a6d-9417-4dc0ff20756f" d="M101.35,243v-18.5h2.94v2.57a4.25,4.25,0,0,1,4.2-3,7.57,7.57,0,0,1,2.34.43v3.21h-.2a4.85,4.85,0,0,0-2.4-.72c-2.22,0-3.94,1.6-3.94,6.22V243Z" transform="translate(-25.55 -145.75)"/><path class="bb452c4f-6dee-4a6d-9417-4dc0ff20756f" d="M121,243V211.5h2.94V243Z" transform="translate(-25.55 -145.75)"/><path class="bb452c4f-6dee-4a6d-9417-4dc0ff20756f" d="M127.45,233.77c0-5.54,3.77-9.67,9-9.67a8.54,8.54,0,0,1,7,3.57v-3.14h2.94V243h-2.94v-3.17a8.53,8.53,0,0,1-7,3.58C131.26,243.44,127.45,239.37,127.45,233.77Zm16,0c0-4.1-2.73-6.88-6.5-6.88s-6.53,2.69-6.53,6.88,2.73,6.9,6.53,6.9S143.41,238,143.41,233.77Z" transform="translate(-25.55 -145.75)"/><path class="bb452c4f-6dee-4a6d-9417-4dc0ff20756f" d="M157.75,234.24h2.93c.43,4,3.29,6.43,8.5,6.43,4.7,0,7.1-1.93,7.1-5.26,0-4.29-4-5-8.19-5.91-4.51-1-9.21-2.28-9.21-7.69,0-4.89,3.81-7.78,9.21-7.78s9.4,2.81,10.12,7.9h-2.94c-.51-3.37-3.28-5.13-7.06-5.13-4,0-6.4,1.89-6.4,4.88,0,3.53,3.49,4.41,7.37,5.3,4.78,1.08,10,2.09,10,8.27,0,5.21-3.69,8.19-10,8.19C163.17,243.44,158.47,240.58,157.75,234.24Z" transform="translate(-25.55 -145.75)"/><path class="bb452c4f-6dee-4a6d-9417-4dc0ff20756f" d="M181.45,233.77c0-5.54,3.77-9.67,9-9.67a8.54,8.54,0,0,1,7,3.57v-3.14h2.94V243h-2.94v-3.17a8.52,8.52,0,0,1-7,3.58C185.26,243.44,181.45,239.37,181.45,233.77Zm16,0c0-4.1-2.73-6.88-6.5-6.88s-6.53,2.69-6.53,6.88,2.73,6.9,6.53,6.9S197.41,238,197.41,233.77Z" transform="translate(-25.55 -145.75)"/><path class="bb452c4f-6dee-4a6d-9417-4dc0ff20756f" d="M205.45,243V211.5h2.94V243Z" transform="translate(-25.55 -145.75)"/><path class="bb452c4f-6dee-4a6d-9417-4dc0ff20756f" d="M213.09,236.93v-12.4H216v12c0,2.89,1.48,4.15,4,4.15,4.17,0,5.89-3.45,5.89-7.15v-9h2.94V243h-2.94v-3.21a6.89,6.89,0,0,1-6.26,3.62C215.4,243.44,213.09,240.85,213.09,236.93Z" transform="translate(-25.55 -145.75)"/><path class="bb452c4f-6dee-4a6d-9417-4dc0ff20756f" d="M232.35,233.77c0-5.54,3.78-9.67,9-9.67a8.57,8.57,0,0,1,7,3.57V211.5h2.93V243h-2.93v-3.17a8.55,8.55,0,0,1-7,3.58C236.17,243.44,232.35,239.37,232.35,233.77Zm16,0c0-4.1-2.73-6.88-6.51-6.88s-6.52,2.69-6.52,6.88,2.73,6.9,6.52,6.9S248.32,238,248.32,233.77Z" transform="translate(-25.55 -145.75)"/><path class="bb452c4f-6dee-4a6d-9417-4dc0ff20756f" d="M278.29,244.28l-8.58-22.11L265.26,243h-3l6.69-29.84,9.38,23.74,9.36-23.74L294.34,243h-3l-4.47-20.86Z" transform="translate(-25.55 -145.75)"/><path class="bb452c4f-6dee-4a6d-9417-4dc0ff20756f" d="M295.86,233.91a9.67,9.67,0,1,1,19.33-.14V235H298.91a6.39,6.39,0,0,0,6.73,5.67,6.11,6.11,0,0,0,5.87-3.37h3.29c-1.3,3.67-4.5,6.14-9.11,6.14C299.8,243.44,295.86,239.21,295.86,233.91Zm16.25-1.39a6.68,6.68,0,0,0-13.2,0Z" transform="translate(-25.55 -145.75)"/><path class="bb452c4f-6dee-4a6d-9417-4dc0ff20756f" d="M318.63,243v-18.5h2.94v3.21a6.88,6.88,0,0,1,6.26-3.64c4.2,0,6.5,2.61,6.5,6.53V243H331.4V231c0-2.89-1.48-4.15-3.94-4.15-4.17,0-5.89,3.45-5.89,7.15v9Z" transform="translate(-25.55 -145.75)"/><path class="bb452c4f-6dee-4a6d-9417-4dc0ff20756f" d="M340.87,243V227.26h-4.63v-2.73h4.63v-7.18h2.94v7.18h4.57v2.73h-4.57V243Z" transform="translate(-25.55 -145.75)"/><path class="bb452c4f-6dee-4a6d-9417-4dc0ff20756f" d="M349.1,233.77c0-5.54,3.77-9.67,9-9.67a8.54,8.54,0,0,1,7,3.57v-3.14H368V243h-2.94v-3.17a8.52,8.52,0,0,1-7,3.58C352.92,243.44,349.1,239.37,349.1,233.77Zm16,0c0-4.1-2.73-6.88-6.5-6.88s-6.53,2.69-6.53,6.88,2.73,6.9,6.53,6.9S365.06,238,365.06,233.77Z" transform="translate(-25.55 -145.75)"/><path class="bb452c4f-6dee-4a6d-9417-4dc0ff20756f" d="M373.11,243V211.5H376V243Z" transform="translate(-25.55 -145.75)"/></svg>