<?xml version="1.0" encoding="UTF-8" standalone="no"?>
<!-- Created with Inkscape (http://www.inkscape.org/) -->
<svg xmlns:dc="http://purl.org/dc/elements/1.1/" xmlns:cc="http://creativecommons.org/ns#" xmlns:rdf="http://www.w3.org/1999/02/22-rdf-syntax-ns#" xmlns:svg="http://www.w3.org/2000/svg" xmlns="http://www.w3.org/2000/svg" xmlns:sodipodi="http://sodipodi.sourceforge.net/DTD/sodipodi-0.dtd" xmlns:inkscape="http://www.inkscape.org/namespaces/inkscape" id="svg2" version="1.1" inkscape:version="0.91 r13725" xml:space="preserve" width="200" height="30.790447" viewBox="0 0 200 30.790448" sodipodi:docname="LOGO_tecnopolitica_web.svg" inkscape:export-filename="/home/arnau/Descargas/LOGO_DEF_ORIGINALS.ai.png" inkscape:export-xdpi="90" inkscape:export-ydpi="90"><metadata id="metadata8"><rdf:RDF><cc:Work rdf:about=""><dc:format>image/svg+xml</dc:format><dc:type rdf:resource="http://purl.org/dc/dcmitype/StillImage"/><dc:title/></cc:Work></rdf:RDF></metadata><defs id="defs6"><clipPath clipPathUnits="userSpaceOnUse" id="clipPath16"><path d="m 0,166.011 450.199,0 L 450.199,0 0,0 0,166.011 Z" id="path18" inkscape:connector-curvature="0"/></clipPath></defs><sodipodi:namedview pagecolor="#ffffff" bordercolor="#666666" borderopacity="1" objecttolerance="10" gridtolerance="10" guidetolerance="10" inkscape:pageopacity="0" inkscape:pageshadow="2" inkscape:window-width="1857" inkscape:window-height="1056" id="namedview4" showgrid="false" inkscape:zoom="1.2970722" inkscape:cx="120.04398" inkscape:cy="9.1788599" inkscape:window-x="63" inkscape:window-y="24" inkscape:window-maximized="1" inkscape:current-layer="g32" fit-margin-top="0" fit-margin-left="0" fit-margin-right="0" fit-margin-bottom="0"/><g id="g10" inkscape:groupmode="layer" inkscape:label="LOGO_DEF_ORIGINALS" transform="matrix(1.25,0,0,-1.25,-62.154375,100.7982)"><g id="g12"><g id="g14" clip-path="url(#clipPath16)"><g id="g20" transform="matrix(0.45616236,0,0,0.45616236,55.826496,66.351232)" style="fill:#ffffff"><path d="m 0,0 c 0,-1.24 0.33,-2.229 0.99,-2.97 0.66,-0.74 1.891,-1.109 3.69,-1.109 l 3.66,0 c 0.441,0 0.82,-0.161 1.14,-0.481 0.321,-0.32 0.481,-0.701 0.481,-1.14 l 0,-3.959 c 0,-0.442 -0.16,-0.82 -0.481,-1.141 -0.32,-0.32 -0.699,-0.48 -1.14,-0.48 l -4.44,0 c -3.759,0 -6.65,0.91 -8.67,2.73 -2.019,1.821 -3.029,4.61 -3.029,8.37 l 0,12.9 -3.961,0 c -0.439,0 -0.82,0.16 -1.138,0.48 -0.323,0.321 -0.481,0.699 -0.481,1.141 l 0,3.959 c 0,0.439 0.158,0.82 0.481,1.14 0.318,0.32 0.699,0.481 1.138,0.481 l 3.961,0 0,9.779 c 0,0.44 0.158,0.82 0.479,1.141 0.32,0.318 0.701,0.479 1.14,0.479 l 4.561,0 c 0.439,0 0.818,-0.161 1.14,-0.479 C -0.16,30.52 0,30.14 0,29.7 l 0,-9.779 7.74,0 c 0.44,0 0.821,-0.161 1.141,-0.481 0.32,-0.32 0.48,-0.701 0.48,-1.14 l 0,-3.959 c 0,-0.442 -0.16,-0.82 -0.48,-1.141 C 8.561,12.88 8.18,12.72 7.74,12.72 L 0,12.72 0,0 Z" style="fill:#ffffff;fill-opacity:1;fill-rule:nonzero;stroke:none" id="path22" inkscape:connector-curvature="0"/></g><g id="g24" transform="matrix(0.45616236,0,0,0.45616236,67.951337,72.427452)" style="fill:#ffffff"><path d="M 0,0 C -1.16,0 -2.15,-0.171 -2.969,-0.511 -3.789,-0.851 -4.48,-1.29 -5.039,-1.83 -5.6,-2.37 -6.029,-2.97 -6.33,-3.63 -6.629,-4.29 -6.82,-4.92 -6.9,-5.521 l 13.56,0 C 6.58,-4.92 6.43,-4.29 6.211,-3.63 5.99,-2.97 5.631,-2.37 5.131,-1.83 4.629,-1.29 3.971,-0.851 3.15,-0.511 2.33,-0.171 1.279,0 0,0 m -14.699,-9 c 0,2.239 0.34,4.351 1.019,6.33 0.68,1.98 1.66,3.699 2.94,5.159 1.281,1.461 2.83,2.612 4.65,3.451 1.82,0.84 3.85,1.26 6.09,1.26 2.24,0 4.27,-0.411 6.09,-1.23 1.82,-0.821 3.369,-1.92 4.65,-3.3 1.28,-1.38 2.27,-3 2.971,-4.86 C 14.41,-4.05 14.76,-6 14.76,-8.04 l 0,-2.7 c 0,-0.441 -0.16,-0.821 -0.479,-1.14 -0.322,-0.32 -0.701,-0.48 -1.14,-0.48 l -20.041,0 c 0,-0.92 0.189,-1.731 0.57,-2.43 0.381,-0.7 0.891,-1.29 1.531,-1.77 0.639,-0.48 1.379,-0.839 2.219,-1.08 0.84,-0.24 1.701,-0.36 2.58,-0.36 1.279,0 2.32,0.13 3.121,0.39 0.799,0.259 1.459,0.589 1.979,0.99 0.441,0.32 0.8,0.54 1.08,0.66 0.279,0.119 0.66,0.18 1.14,0.18 l 4.801,0 c 0.44,0 0.828,-0.16 1.17,-0.481 0.338,-0.32 0.488,-0.699 0.449,-1.138 -0.041,-0.562 -0.349,-1.282 -0.929,-2.161 -0.581,-0.88 -1.452,-1.74 -2.61,-2.58 C 9.039,-22.979 7.609,-23.7 5.91,-24.3 4.209,-24.899 2.24,-25.2 0,-25.2 c -2.24,0 -4.27,0.39 -6.09,1.17 -1.82,0.78 -3.369,1.89 -4.65,3.33 -1.28,1.439 -2.26,3.15 -2.94,5.13 -0.679,1.979 -1.019,4.171 -1.019,6.57" style="fill:#ffffff;fill-opacity:1;fill-rule:nonzero;stroke:none" id="path26" inkscape:connector-curvature="0"/></g><g id="g28" transform="matrix(0.45616236,0,0,0.45616236,79.446264,69.280206)" style="fill:#ffffff"><path d="m 0,0 c -0.08,-0.601 -0.119,-1.301 -0.119,-2.101 0,-0.8 0.039,-1.5 0.119,-2.1 0.121,-1.24 0.4,-2.301 0.84,-3.18 0.439,-0.881 0.99,-1.59 1.65,-2.13 0.66,-0.54 1.389,-0.94 2.19,-1.2 0.8,-0.26 1.621,-0.39 2.461,-0.39 1,0 1.839,0.08 2.519,0.24 0.68,0.16 1.26,0.39 1.74,0.69 0.481,0.3 0.889,0.64 1.231,1.021 0.338,0.379 0.668,0.809 0.99,1.289 0.238,0.361 0.52,0.72 0.84,1.08 0.318,0.36 0.699,0.541 1.139,0.541 l 4.56,0 c 0.44,0 0.83,-0.16 1.17,-0.481 0.34,-0.32 0.49,-0.7 0.451,-1.14 -0.041,-0.84 -0.342,-1.86 -0.9,-3.06 -0.561,-1.2 -1.432,-2.35 -2.611,-3.45 -1.18,-1.1 -2.69,-2.03 -4.53,-2.789 -1.84,-0.76 -4.041,-1.141 -6.599,-1.141 -2.202,0 -4.18,0.371 -5.94,1.11 -1.762,0.74 -3.291,1.74 -4.592,3 -1.298,1.26 -2.32,2.72 -3.058,4.38 -0.74,1.66 -1.192,3.411 -1.35,5.25 -0.082,0.72 -0.121,1.52 -0.121,2.401 0,0.879 0.039,1.699 0.121,2.459 0.119,1.84 0.559,3.6 1.319,5.28 0.759,1.681 1.779,3.15 3.06,4.41 1.279,1.261 2.811,2.259 4.59,3 1.779,0.74 3.769,1.111 5.971,1.111 2.558,0 4.759,-0.381 6.599,-1.141 1.84,-0.76 3.35,-1.689 4.53,-2.789 C 19.449,9.068 20.32,7.92 20.881,6.719 21.439,5.52 21.74,4.5 21.781,3.659 21.82,3.219 21.67,2.839 21.33,2.52 20.99,2.199 20.6,2.039 20.16,2.039 l -4.56,0 c -0.44,0 -0.821,0.18 -1.139,0.54 -0.32,0.36 -0.602,0.72 -0.84,1.08 -0.322,0.48 -0.652,0.909 -0.99,1.29 C 12.289,5.329 11.881,5.67 11.4,5.969 10.92,6.27 10.34,6.499 9.66,6.659 8.98,6.818 8.141,6.899 7.141,6.899 6.301,6.899 5.48,6.77 4.68,6.51 3.879,6.248 3.15,5.85 2.49,5.309 1.83,4.77 1.279,4.059 0.84,3.18 0.4,2.299 0.121,1.238 0,0" style="fill:#ffffff;fill-opacity:1;fill-rule:nonzero;stroke:none" id="path30" inkscape:connector-curvature="0"/></g><g id="g32" transform="translate(170.0811,69.0254)"><path d="m -65.454992,-7.0803309 c 0,-0.2011676 -0.07298,-0.3740532 -0.218502,-0.5204812 -0.146885,-0.145972 -0.31977,-0.218958 -0.520025,-0.218958 l -2.080557,0 c -0.200255,0 -0.374053,0.072986 -0.519113,0.218958 -0.147341,0.146428 -0.219414,0.3193136 -0.219414,0.5204812 l 0,6.95145818 c 0,1.09478968 -0.255452,1.97107762 -0.766353,2.62795142 -0.511359,0.6564176 -1.295957,0.9848545 -2.353798,0.9848545 -0.96752,0 -1.729311,-0.3284369 -2.284917,-0.9848545 -0.556974,-0.6568738 -0.835234,-1.53316174 -0.835234,-2.62795142 l 0,-6.95145818 c 0,-0.2011676 -0.07298,-0.3740532 -0.218957,-0.5204812 -0.145972,-0.145972 -0.31977,-0.218958 -0.520481,-0.218958 l -2.080101,0 c -0.200711,0 -0.374052,0.072986 -0.519569,0.218958 -0.145972,0.146428 -0.218958,0.3193136 -0.218958,0.5204812 l 0,12.7538435 c 0,0.2002552 0.07298,0.374053 0.218958,0.5204812 0.145517,0.1455158 0.318858,0.2189579 0.519569,0.2189579 l 2.080101,0 c 0.200711,0 0.374509,-0.073442 0.520481,-0.2189579 0.145971,-0.1464282 0.218957,-0.320226 0.218957,-0.5204812 l 0,-0.6290479 c 0.47441,0.4739527 1.030016,0.8662523 1.670011,1.1764427 0.637715,0.3101904 1.394945,0.4657417 2.270776,0.4657417 1.113037,0 2.044063,-0.1737979 2.79217,-0.5204812 0.74765,-0.3466833 1.349784,-0.8115128 1.805947,-1.3958569 0.456162,-0.5838877 0.780494,-1.2635697 0.972082,-2.0385895 0.191588,-0.7759322 0.286927,-1.5920067 0.286927,-2.45004812 l 0,-7.36200428 z" style="fill:#ffffff;fill-opacity:1;fill-rule:nonzero;stroke:none" id="path34" inkscape:connector-curvature="0"/></g><g id="g36" transform="matrix(0.45616236,0,0,0.45616236,116.7509,69.553721)" style="fill:#ffffff"><path d="M 0,0 C -0.119,1.239 -0.41,2.27 -0.869,3.09 -1.33,3.909 -1.9,4.56 -2.58,5.039 -3.26,5.52 -4,5.85 -4.801,6.029 -5.6,6.209 -6.42,6.3 -7.26,6.3 -8.1,6.3 -8.92,6.209 -9.721,6.029 -10.521,5.85 -11.26,5.52 -11.939,5.039 -12.621,4.56 -13.191,3.909 -13.65,3.09 -14.109,2.27 -14.4,1.239 -14.52,0 c -0.041,-0.32 -0.07,-0.721 -0.089,-1.2 -0.022,-0.48 -0.032,-0.982 -0.032,-1.5 0,-0.521 0.01,-1.03 0.032,-1.53 0.019,-0.5 0.048,-0.891 0.089,-1.17 0.12,-1.241 0.411,-2.271 0.87,-3.09 0.459,-0.821 1.029,-1.471 1.711,-1.95 0.679,-0.48 1.418,-0.81 2.218,-0.99 0.801,-0.18 1.621,-0.27 2.461,-0.27 0.84,0 1.66,0.09 2.459,0.27 0.801,0.18 1.541,0.51 2.221,0.99 0.68,0.479 1.25,1.129 1.711,1.95 0.459,0.819 0.75,1.849 0.869,3.09 0.039,0.279 0.061,0.67 0.061,1.17 l 0,1.53 0,1.5 C 0.061,-0.721 0.039,-0.32 0,0 m -7.26,13.5 c 2.199,0 4.19,-0.341 5.971,-1.021 C 0.49,11.799 2.029,10.859 3.33,9.66 4.629,8.459 5.67,7.059 6.449,5.459 7.23,3.859 7.68,2.139 7.801,0.3 7.84,-0.061 7.859,-0.521 7.859,-1.08 l 0,-1.68 0,-1.65 C 7.859,-4.95 7.84,-5.4 7.801,-5.76 7.641,-7.601 7.18,-9.32 6.42,-10.92 5.66,-12.521 4.629,-13.911 3.33,-15.09 2.029,-16.271 0.49,-17.201 -1.289,-17.881 -3.07,-18.561 -5.061,-18.9 -7.26,-18.9 c -2.201,0 -4.191,0.339 -5.97,1.019 -1.78,0.68 -3.321,1.61 -4.62,2.791 -1.3,1.179 -2.33,2.569 -3.089,4.17 -0.762,1.6 -1.221,3.319 -1.381,5.16 -0.039,0.36 -0.071,0.81 -0.09,1.35 -0.02,0.54 -0.029,1.09 -0.029,1.65 0,0.559 0.009,1.119 0.029,1.68 0.019,0.559 0.051,1.019 0.09,1.38 0.121,1.839 0.57,3.559 1.349,5.159 0.782,1.6 1.821,3 3.121,4.201 1.299,1.199 2.84,2.139 4.62,2.819 1.779,0.68 3.769,1.021 5.97,1.021" style="fill:#ffffff;fill-opacity:1;fill-rule:nonzero;stroke:none" id="path38" inkscape:connector-curvature="0"/></g><g id="g40" transform="matrix(0.45616236,0,0,0.45616236,132.59812,67.555318)" style="fill:#ffffff"><path d="m 0,0 c 0.119,1.12 0.119,2.24 0,3.36 -0.24,2.601 -1.041,4.47 -2.4,5.611 -1.362,1.139 -3.022,1.71 -4.981,1.71 -1.961,0 -3.609,-0.581 -4.949,-1.741 -1.342,-1.161 -2.111,-2.819 -2.311,-4.979 -0.08,-0.601 -0.121,-1.361 -0.121,-2.28 0,-0.921 0.041,-1.681 0.121,-2.281 0.2,-2.08 0.969,-3.719 2.311,-4.92 1.34,-1.199 2.988,-1.799 4.949,-1.799 1.959,0 3.619,0.569 4.981,1.71 C -1.041,-4.469 -0.24,-2.6 0,0 m -5.58,-14.52 c -1.24,0 -2.352,0.121 -3.33,0.36 -0.981,0.24 -1.842,0.541 -2.58,0.9 -0.74,0.361 -1.371,0.75 -1.891,1.17 -0.519,0.42 -0.939,0.811 -1.26,1.17 l 0,-12.779 c 0,-0.44 -0.16,-0.821 -0.48,-1.141 -0.32,-0.318 -0.699,-0.478 -1.141,-0.478 l -4.558,0 c -0.442,0 -0.821,0.16 -1.141,0.478 -0.32,0.32 -0.48,0.701 -0.48,1.141 l 0,39.359 c 0,0.44 0.16,0.82 0.48,1.141 0.32,0.319 0.699,0.48 1.141,0.48 l 4.558,0 c 0.442,0 0.821,-0.161 1.141,-0.48 0.32,-0.321 0.48,-0.701 0.48,-1.141 l 0,-1.379 c 0.321,0.36 0.741,0.75 1.26,1.17 0.52,0.42 1.151,0.81 1.891,1.17 0.738,0.359 1.599,0.66 2.58,0.9 0.978,0.24 2.09,0.36 3.33,0.36 1.998,0 3.809,-0.391 5.43,-1.17 1.619,-0.78 3,-1.82 4.138,-3.121 1.141,-1.3 2.041,-2.8 2.701,-4.5 0.661,-1.699 1.03,-3.47 1.11,-5.309 0.039,-0.6 0.06,-1.301 0.06,-2.1 0,-0.801 -0.021,-1.5 -0.06,-2.101 -0.08,-1.84 -0.449,-3.609 -1.11,-5.309 -0.66,-1.701 -1.56,-3.201 -2.701,-4.5 -1.138,-1.3 -2.519,-2.34 -4.138,-3.121 -1.621,-0.779 -3.432,-1.17 -5.43,-1.17" style="fill:#ffffff;fill-opacity:1;fill-rule:nonzero;stroke:none" id="path42" inkscape:connector-curvature="0"/></g><g id="g44" transform="matrix(0.45616236,0,0,0.45616236,147.78777,69.553721)" style="fill:#ffffff"><path d="M 0,0 C -0.121,1.239 -0.41,2.27 -0.871,3.09 -1.33,3.909 -1.9,4.56 -2.58,5.039 -3.262,5.52 -4,5.85 -4.801,6.029 -5.602,6.209 -6.42,6.3 -7.26,6.3 -8.1,6.3 -8.92,6.209 -9.721,6.029 -10.521,5.85 -11.26,5.52 -11.939,5.039 -12.621,4.56 -13.191,3.909 -13.65,3.09 -14.111,2.27 -14.4,1.239 -14.52,0 c -0.041,-0.32 -0.07,-0.721 -0.091,-1.2 -0.02,-0.48 -0.03,-0.982 -0.03,-1.5 0,-0.521 0.01,-1.03 0.03,-1.53 0.021,-0.5 0.05,-0.891 0.091,-1.17 0.12,-1.241 0.409,-2.271 0.87,-3.09 0.459,-0.821 1.029,-1.471 1.711,-1.95 0.679,-0.48 1.418,-0.81 2.218,-0.99 0.801,-0.18 1.621,-0.27 2.461,-0.27 0.84,0 1.658,0.09 2.459,0.27 0.801,0.18 1.539,0.51 2.221,0.99 0.68,0.479 1.25,1.129 1.709,1.95 0.461,0.819 0.75,1.849 0.871,3.09 0.039,0.279 0.061,0.67 0.061,1.17 l 0,1.53 0,1.5 C 0.061,-0.721 0.039,-0.32 0,0 m -7.26,13.5 c 2.199,0 4.19,-0.341 5.969,-1.021 1.779,-0.68 3.32,-1.62 4.621,-2.819 1.299,-1.201 2.34,-2.601 3.119,-4.201 0.78,-1.6 1.231,-3.32 1.35,-5.159 0.039,-0.361 0.06,-0.821 0.06,-1.38 l 0,-1.68 0,-1.65 c 0,-0.54 -0.021,-0.99 -0.06,-1.35 -0.16,-1.841 -0.621,-3.56 -1.379,-5.16 -0.762,-1.601 -1.791,-2.991 -3.09,-4.17 -1.301,-1.181 -2.842,-2.111 -4.621,-2.791 -1.779,-0.68 -3.77,-1.019 -5.969,-1.019 -2.201,0 -4.191,0.339 -5.97,1.019 -1.78,0.68 -3.321,1.61 -4.62,2.791 -1.3,1.179 -2.332,2.569 -3.089,4.17 -0.762,1.6 -1.221,3.319 -1.381,5.16 -0.041,0.36 -0.071,0.81 -0.09,1.35 -0.022,0.54 -0.029,1.09 -0.029,1.65 0,0.559 0.007,1.119 0.029,1.68 0.019,0.559 0.049,1.019 0.09,1.38 0.119,1.839 0.57,3.559 1.349,5.159 0.782,1.6 1.821,3 3.121,4.201 1.299,1.199 2.84,2.139 4.62,2.819 1.779,0.68 3.769,1.021 5.97,1.021" style="fill:#ffffff;fill-opacity:1;fill-rule:nonzero;stroke:none" id="path46" inkscape:connector-curvature="0"/></g><g id="g48" transform="matrix(0.45616236,0,0,0.45616236,156.95559,61.944613)" style="fill:#ffffff"><path d="m 0,0 c 0,-0.44 -0.16,-0.82 -0.48,-1.14 -0.321,-0.321 -0.7,-0.479 -1.141,-0.479 l -4.559,0 c -0.441,0 -0.82,0.158 -1.14,0.479 -0.321,0.32 -0.481,0.7 -0.481,1.14 l 0,39.36 c 0,0.441 0.16,0.82 0.481,1.14 0.32,0.32 0.699,0.48 1.14,0.48 l 4.559,0 c 0.441,0 0.82,-0.16 1.141,-0.48 C -0.16,40.18 0,39.801 0,39.36 L 0,0 Z" style="fill:#ffffff;fill-opacity:1;fill-rule:nonzero;stroke:none" id="path50" inkscape:connector-curvature="0"/></g><g id="g52" transform="matrix(0.45616236,0,0,0.45616236,170.66715,66.351232)" style="fill:#ffffff"><path d="m 0,0 c 0,-1.24 0.33,-2.23 0.99,-2.97 0.66,-0.741 1.891,-1.11 3.69,-1.11 l 3.66,0 c 0.439,0 0.82,-0.16 1.14,-0.48 0.319,-0.321 0.481,-0.7 0.481,-1.139 l 0,-3.961 c 0,-0.441 -0.162,-0.82 -0.481,-1.14 -0.32,-0.321 -0.701,-0.479 -1.14,-0.479 l -4.44,0 c -3.759,0 -6.65,0.908 -8.67,2.729 -2.021,1.82 -3.031,4.611 -3.031,8.37 l 0,12.901 -3.959,0 c -0.441,0 -0.82,0.158 -1.14,0.479 -0.321,0.32 -0.481,0.699 -0.481,1.14 l 0,3.961 c 0,0.439 0.16,0.818 0.481,1.139 0.32,0.32 0.699,0.48 1.14,0.48 l 3.959,0 0,9.78 c 0,0.441 0.16,0.82 0.481,1.14 0.32,0.32 0.699,0.48 1.14,0.48 l 4.561,0 c 0.439,0 0.818,-0.16 1.139,-0.48 C -0.16,30.52 0,30.141 0,29.7 l 0,-9.78 7.74,0 c 0.44,0 0.819,-0.16 1.141,-0.48 0.318,-0.321 0.478,-0.7 0.478,-1.139 l 0,-3.961 C 9.359,13.899 9.199,13.52 8.881,13.2 8.559,12.879 8.18,12.721 7.74,12.721 L 0,12.721 0,0 Z" style="fill:#ffffff;fill-opacity:1;fill-rule:nonzero;stroke:none" id="path54" inkscape:connector-curvature="0"/></g><g id="g56" transform="matrix(0.45616236,0,0,0.45616236,180.35618,61.944613)" style="fill:#ffffff"><path d="m 0,0 c 0,-0.44 -0.16,-0.82 -0.48,-1.14 -0.321,-0.321 -0.702,-0.479 -1.141,-0.479 l -4.561,0 c -0.439,0 -0.82,0.158 -1.138,0.479 -0.321,0.32 -0.481,0.7 -0.481,1.14 l 0,27.961 c 0,0.439 0.16,0.818 0.481,1.14 0.318,0.319 0.699,0.479 1.138,0.479 l 4.561,0 c 0.439,0 0.82,-0.16 1.141,-0.479 C -0.16,28.779 0,28.4 0,27.961 L 0,0 Z m -1.32,40.98 c 0.439,0 0.818,-0.16 1.138,-0.48 0.321,-0.32 0.481,-0.699 0.481,-1.14 l 0,-4.68 c 0,-0.44 -0.16,-0.821 -0.481,-1.139 -0.32,-0.321 -0.699,-0.48 -1.138,-0.48 l -5.16,0 c -0.442,0 -0.821,0.159 -1.141,0.48 -0.32,0.318 -0.481,0.699 -0.481,1.139 l 0,4.68 c 0,0.441 0.161,0.82 0.481,1.14 0.32,0.32 0.699,0.48 1.141,0.48 l 5.16,0 z" style="fill:#ffffff;fill-opacity:1;fill-rule:nonzero;stroke:none" id="path58" inkscape:connector-curvature="0"/></g><g id="g60" transform="matrix(0.45616236,0,0,0.45616236,185.91119,69.27975)" style="fill:#ffffff"><path d="m 0,0 c -0.08,-0.6 -0.119,-1.3 -0.119,-2.1 0,-0.8 0.039,-1.5 0.119,-2.099 0.121,-1.24 0.4,-2.301 0.84,-3.181 0.441,-0.88 0.99,-1.59 1.65,-2.13 0.66,-0.54 1.391,-0.94 2.192,-1.199 0.798,-0.262 1.619,-0.391 2.459,-0.391 1,0 1.839,0.08 2.519,0.241 0.68,0.159 1.26,0.389 1.74,0.689 0.481,0.301 0.891,0.64 1.231,1.02 0.34,0.38 0.67,0.81 0.99,1.291 0.24,0.359 0.52,0.719 0.84,1.08 0.32,0.359 0.699,0.539 1.141,0.539 l 4.558,0 c 0.44,0 0.83,-0.16 1.17,-0.48 0.34,-0.321 0.49,-0.7 0.451,-1.139 -0.041,-0.84 -0.34,-1.861 -0.9,-3.061 -0.561,-1.199 -1.432,-2.35 -2.61,-3.449 -1.181,-1.102 -2.691,-2.031 -4.531,-2.791 -1.84,-0.759 -4.041,-1.139 -6.599,-1.139 -2.2,0 -4.18,0.369 -5.94,1.11 -1.762,0.739 -3.291,1.74 -4.59,3 -1.3,1.259 -2.32,2.718 -3.06,4.379 -0.74,1.66 -1.192,3.41 -1.35,5.25 -0.08,0.72 -0.121,1.52 -0.121,2.4 0,0.88 0.041,1.7 0.121,2.461 0.119,1.839 0.559,3.599 1.32,5.279 0.758,1.68 1.78,3.15 3.059,4.41 1.281,1.26 2.811,2.26 4.59,3 1.779,0.74 3.771,1.11 5.971,1.11 2.558,0 4.759,-0.38 6.599,-1.139 1.84,-0.761 3.35,-1.691 4.531,-2.791 1.178,-1.1 2.049,-2.25 2.61,-3.449 0.56,-1.2 0.859,-2.221 0.9,-3.061 C 21.82,3.22 21.67,2.84 21.33,2.521 20.99,2.199 20.6,2.041 20.16,2.041 l -4.558,0 c -0.442,0 -0.821,0.18 -1.141,0.539 -0.32,0.36 -0.6,0.721 -0.84,1.08 -0.32,0.481 -0.65,0.91 -0.99,1.29 C 12.291,5.33 11.881,5.67 11.4,5.971 10.92,6.271 10.34,6.5 9.66,6.66 8.98,6.82 8.141,6.9 7.141,6.9 6.301,6.9 5.48,6.77 4.682,6.51 3.881,6.25 3.15,5.85 2.49,5.311 1.83,4.771 1.281,4.06 0.84,3.18 0.4,2.3 0.121,1.24 0,0" style="fill:#ffffff;fill-opacity:1;fill-rule:nonzero;stroke:none" id="path62" inkscape:connector-curvature="0"/></g><g id="g64" transform="matrix(0.45616236,0,0,0.45616236,202.3063,64.216529)" style="fill:#ffffff"><path d="M 0,0 C 1.359,0 2.568,0.189 3.629,0.57 4.689,0.949 5.58,1.459 6.299,2.1 7.02,2.739 7.561,3.459 7.92,4.26 8.279,5.06 8.459,5.88 8.459,6.72 l 0,0.6 -8.16,-1.44 C -1.342,5.6 -2.52,5.189 -3.24,4.65 -3.961,4.109 -4.32,3.379 -4.32,2.46 -4.32,1.62 -3.891,1 -3.031,0.6 -2.17,0.199 -1.16,0 0,0 m -10.02,16.92 c 0.159,0.84 0.53,1.74 1.11,2.7 0.58,0.96 1.4,1.86 2.459,2.7 1.06,0.84 2.361,1.53 3.9,2.071 1.539,0.539 3.33,0.808 5.371,0.808 2.039,0 3.879,-0.269 5.52,-0.808 1.639,-0.541 3.049,-1.331 4.23,-2.371 1.178,-1.041 2.09,-2.35 2.729,-3.93 0.64,-1.58 0.961,-3.391 0.961,-5.43 l 0,-17.64 c 0,-0.441 -0.16,-0.821 -0.481,-1.14 -0.32,-0.321 -0.699,-0.48 -1.14,-0.48 l -4.559,0 c -0.441,0 -0.82,0.159 -1.141,0.48 -0.32,0.319 -0.48,0.699 -0.48,1.14 l 0,1.98 C 7.619,-4.16 6.41,-5.15 4.83,-5.971 3.248,-6.789 1.238,-7.199 -1.201,-7.199 c -1.719,0 -3.26,0.23 -4.619,0.689 -1.362,0.459 -2.5,1.11 -3.42,1.949 -0.92,0.84 -1.631,1.831 -2.131,2.971 -0.5,1.14 -0.75,2.39 -0.75,3.75 0,2.76 0.98,4.92 2.941,6.481 1.959,1.558 4.578,2.619 7.86,3.179 l 9.779,1.68 c 0,1.64 -0.539,2.799 -1.619,3.48 C 5.76,17.66 4.42,18 2.82,18 1.818,18 1.039,17.859 0.48,17.58 -0.08,17.3 -0.621,16.92 -1.141,16.439 -1.5,16.119 -1.83,15.9 -2.131,15.779 -2.43,15.66 -2.76,15.6 -3.121,15.6 l -5.58,0 c -0.401,0 -0.74,0.12 -1.02,0.36 -0.279,0.239 -0.381,0.56 -0.299,0.96" style="fill:#ffffff;fill-opacity:1;fill-rule:nonzero;stroke:none" id="path66" inkscape:connector-curvature="0"/></g><g id="g68" transform="matrix(0.45616236,0,0,0.45616236,162.31993,80.118076)" style="fill:#ffffff"><path d="m 0,0 c 0.439,0.52 0.811,0.84 1.109,0.961 0.301,0.119 0.67,0.18 1.112,0.18 l 5.699,0 c 0.76,0 1.141,-0.401 1.141,-1.2 0,-0.281 -0.102,-0.521 -0.301,-0.72 L 2.283,-5.76 c -0.32,-0.279 -0.658,-0.519 -1.019,-0.719 -0.36,-0.201 -0.86,-0.3 -1.5,-0.3 l -3.299,0 c -0.641,0 -0.961,0.32 -0.961,0.961 0,0.238 0.1,0.498 0.301,0.779 L 0,0 Z m 1.92,-39.84 c 0,-0.439 -0.16,-0.82 -0.481,-1.139 -0.32,-0.322 -0.699,-0.48 -1.14,-0.48 l -4.559,0 c -0.441,0 -0.82,0.158 -1.14,0.48 -0.321,0.319 -0.481,0.7 -0.481,1.139 l 0,27.961 c 0,0.44 0.16,0.818 0.481,1.141 0.32,0.318 0.699,0.478 1.14,0.478 l 4.559,0 c 0.441,0 0.82,-0.16 1.14,-0.478 0.321,-0.323 0.481,-0.701 0.481,-1.141 l 0,-27.961 z" style="fill:#ffffff;fill-opacity:1;fill-rule:nonzero;stroke:none" id="path70" inkscape:connector-curvature="0"/></g></g></g></g></svg>