<svg version="1.1" id="Layer_1" xmlns="http://www.w3.org/2000/svg" x="0" y="0" viewBox="0 0 797.3 185.2" xml:space="preserve">
  <style>
    .st0{fill:#fff}
  </style>
  <path class="st0" d="m243.2 78.4 11.9-38.6h15.6l11.8 38.6 13.3-38.6H312l-23.4 67.1h-11.1l-14.7-46.7-14.6 46.7h-11.1l-23.4-67.1h16.2l13.3 38.6zm76.9-38.6h15v67.1h-15V39.8zm31.5 0h15v27.6l25.3-27.6h18.5l-26.7 29.7c2.3 3.2 6.6 9.2 12.8 17.9 6.2 8.7 10.8 15.2 13.9 19.5h-17.5l-19.7-26.5-6.7 7.5v19h-15V39.8zm68.1 0h15v67.1h-15V39.8zm91.6 24.9-18.1 36.7h-8.9l-18-36.7v42.2h-15V39.8h20.3l17.3 36.9 17.4-36.9h20.2v67.1h-15V64.7zm79.9-24.9v13.3h-33.4V67h30v12.8h-30v13.9h34.5v13.2h-49.4V39.8h48.3zm65.6 8.8c6.4 5.9 9.6 14 9.6 24.4 0 10.4-3.1 18.7-9.4 24.8-6.2 6.1-15.8 9.1-28.6 9.1h-22.9V39.8h23.7c12.1 0 21.2 3 27.6 8.8zm-10.9 39.9c3.7-3.5 5.5-8.5 5.5-15.1s-1.8-11.7-5.5-15.2c-3.7-3.6-9.3-5.3-16.9-5.3h-8.4v40.8h9.5c6.8 0 12.1-1.7 15.8-5.2zm33.5-48.7h15v67.1h-15V39.8zm79.3 67.1-6.2-14.5h-28.1l-6.2 14.5h-15.9l29-67.1h14.5l29 67.1h-16.1zm-20.3-47.1L730 79.3h16.8l-8.4-19.5zM241 137.4v8.1h13v4.6h-13v12.1h-5v-29.4h19.6v4.6H241zm70.2 20.6c-3 2.9-6.6 4.3-11 4.3s-8-1.4-11-4.3-4.5-6.5-4.5-10.8c0-4.3 1.5-7.9 4.5-10.8 3-2.9 6.6-4.3 11-4.3s8 1.4 11 4.3 4.5 6.5 4.5 10.8c0 4.3-1.5 7.9-4.5 10.8zm-3.6-18.3c-2-2.1-4.5-3.1-7.4-3.1s-5.4 1-7.4 3.1-3 4.6-3 7.5c0 3 1 5.5 3 7.5s4.5 3.1 7.4 3.1 5.4-1 7.4-3.1 3-4.6 3-7.5c0-3-1-5.5-3-7.5zm46.1 15.7c1.3 1.6 3.2 2.4 5.5 2.4s4.1-.8 5.5-2.4 2-3.7 2-6.4v-16.3h5v16.5c0 4.2-1.2 7.5-3.5 9.8-2.3 2.3-5.3 3.4-8.9 3.4-3.6 0-6.6-1.1-8.9-3.4s-3.5-5.5-3.5-9.8v-16.5h5V149c-.2 2.7.5 4.8 1.8 6.4zm72.9-22.7h5v29.4h-5.4l-16.6-21.4v21.4h-5v-29.4h5l17.1 21.9v-21.9zm60.5 3.9c2.8 2.6 4.2 6.1 4.2 10.7s-1.4 8.2-4.1 10.8c-2.7 2.7-6.9 4-12.6 4h-9.7v-29.4H475c5.2 0 9.3 1.3 12.1 3.9zm-.7 10.8c0-6.7-3.9-10.1-11.5-10.1h-5v20.1h5.5c3.6 0 6.3-.8 8.2-2.5 1.8-1.7 2.8-4.2 2.8-7.5zm40.7 8-2.9 6.7h-5.3l12.9-29.4h5.3l12.9 29.4h-5.3l-2.9-6.7h-14.7zm12.7-4.6-5.3-12.1-5.3 12.1h10.6zm48.3-13.5v24.8h-5v-24.8h-8.9v-4.5H597v4.5h-8.9zm39.5-4.6h5v29.4h-5v-29.4zm62.8 25.3c-3 2.9-6.6 4.3-11 4.3s-8-1.4-11-4.3-4.5-6.5-4.5-10.8c0-4.3 1.5-7.9 4.5-10.8 3-2.9 6.6-4.3 11-4.3s8 1.4 11 4.3 4.5 6.5 4.5 10.8c0 4.3-1.5 7.9-4.5 10.8zm-3.6-18.3c-2-2.1-4.5-3.1-7.4-3.1s-5.4 1-7.4 3.1-3 4.6-3 7.5c0 3 1 5.5 3 7.5s4.5 3.1 7.4 3.1 5.4-1 7.4-3.1 3-4.6 3-7.5c0-3-1-5.5-3-7.5zm61.5-7h5v29.4h-5.4l-16.6-21.4v21.4h-5v-29.4h5l17.1 21.9v-21.9zm-640 11.7c25.3-3.6 44.7-25.3 44.7-51.5 0-16-7.2-30.2-18.5-39.8l-26.2 26.2v65.1zm-14.7 0V79.3L67.4 53a51.86 51.86 0 0 0-18.5 39.8c0 26.3 19.4 48 44.7 51.6z"/>
  <path class="st0" d="M146.2 47.6c12.1 12.1 18.7 28.2 18.7 45.2s-6.7 33.2-18.7 45.2c-12.1 12.1-28.2 18.7-45.2 18.7S67.8 150 55.8 138 37 109.9 37 92.8s6.7-33.2 18.7-45.2c1-1 2.1-2 3.2-3L44.3 30c-1.1 1-2.1 2-3.2 3-7.8 7.8-13.9 16.8-18.1 26.9-4.4 10.4-6.7 21.5-6.7 32.9 0 11.4 2.2 22.5 6.7 32.9 4.3 10.1 10.4 19.1 18.1 26.9 7.8 7.8 16.8 13.9 26.9 18.1 10.4 4.4 21.5 6.7 32.9 6.7 11.4 0 22.5-2.2 32.9-6.7 10.1-4.3 19.1-10.4 26.9-18.1 7.8-7.8 13.9-16.8 18.1-26.9 4.4-10.4 6.7-21.5 6.7-32.9 0-11.4-2.2-22.5-6.7-32.9-4.3-10.1-10.4-19.1-18.1-26.9-1-1-2.1-2-3.2-3L143 44.6c1.1.9 2.1 1.9 3.2 3z"/>
  <circle id="red_circle_3_" class="st0" cx="100.9" cy="34.1" r="26.4"/>
</svg>
